<svg width="385" height="197" viewBox="0 0 385 197" fill="none" xmlns="http://www.w3.org/2000/svg">
<path d="M121.173 12.7485C113.233 9.46936 103.856 9.35225 96.4673 9.35225C84.2814 9.35225 73.5498 13.4679 64.2725 21.6993C54.9952 29.9306 47.8575 40.6715 42.8595 53.9052C37.8614 67.1389 35.3708 80.9917 35.3708 95.4801C35.3708 97.0361 35.4042 98.5418 35.4878 100.014C36.123 116.393 39.8506 130.396 46.6874 142.041C53.5242 153.685 62.1162 162.469 72.4633 168.425C82.7937 174.381 93.5587 177.342 104.708 177.342C112.882 177.342 120.572 175.702 127.759 172.423C134.947 169.144 141.667 164.56 146.732 158.135C151.797 151.711 156.143 146.14 157.948 136.921L161.626 136.637C159.352 149.737 157.447 153.769 145.963 167.939C138.708 176.907 130.033 183.867 120.087 188.401C110.141 192.935 99.5096 195.193 88.1929 195.193C73.483 195.193 59.3581 191.446 45.8015 183.934C32.2449 176.438 21.2124 165.396 12.7208 150.824C4.24583 136.252 0 118.919 0 98.8262C0 81.159 3.62734 64.897 10.9155 50.0739C18.1869 35.2509 28.5507 23.4894 41.9903 14.7729C55.4298 6.0731 70.9589 1.72321 88.5607 1.72321C101.616 1.72321 112.448 3.59701 121.056 7.34461C129.665 11.0922 135.967 15.8604 139.979 21.6323" fill="#315D0D"/>
<path d="M139.979 173.544C135.967 179.316 129.665 184.084 121.056 187.832C112.448 191.579 101.616 193.453 88.5607 193.453C70.9422 193.453 55.4298 189.103 41.9735 180.387C28.534 171.67 18.1702 159.909 10.8987 145.086C3.62734 130.263 0 114.017 0 96.3334C0 76.257 4.24583 58.9243 12.7375 44.3522C21.2292 29.78 32.2616 18.7547 45.8182 11.2428C59.3748 3.7476 73.5164 0 88.2096 0C99.5263 0 110.158 2.2586 120.104 6.79253C130.049 11.3265 138.524 18.1524 145.512 27.2872C152.516 36.422 157.146 47.5477 159.436 60.6476L156.494 60.7814C154.689 51.563 151.245 43.7332 146.18 37.3087C141.115 30.8842 134.981 26.0324 127.776 22.77C120.588 19.4909 112.899 17.8513 104.725 17.8513C93.5587 17.8513 82.8104 20.8293 72.48 26.7686C62.1329 32.7079 53.5576 41.508 46.7041 53.1524C39.8674 64.7967 36.123 78.8 35.5045 95.179C35.4209 96.6513 35.3875 98.157 35.3875 99.713C35.3875 114.201 37.8782 128.054 42.8762 141.288C47.8743 154.522 54.9952 165.246 64.2892 173.494C73.5665 181.725 84.2981 185.841 96.484 185.841C103.872 185.841 113.25 185.724 121.19 182.445" fill="#315D0D"/>
<path d="M160.857 57.4855C160.857 57.4855 173.528 77.0098 198.267 64.9472C198.267 64.9472 189.441 41.3574 163.297 49.4549C163.297 49.4549 176.77 52.5333 180.348 58.9578C180.348 58.9578 175.55 62.9229 160.857 57.4855Z" fill="#315D0D" stroke="#315D0D" stroke-width="0.3" stroke-linecap="round" stroke-linejoin="round"/>
<path d="M161.124 44.3689C161.124 44.3689 179.98 45.3727 182.119 26.0826C182.119 26.0826 162.077 21.1472 156.611 39.5673C156.611 39.5673 164.434 33.1428 170.401 33.8121C170.401 33.8121 171.103 38.2456 161.124 44.3689Z" fill="#315D0D" stroke="#315D0D" stroke-width="0.3" stroke-linecap="round" stroke-linejoin="round"/>
<path d="M149.456 49.8732C149.456 49.8732 140.714 55.9631 132.757 47.2967C132.757 47.2967 140.664 38.9483 149.908 46.226C149.908 46.226 143.823 45.4564 141.182 47.5477C141.182 47.5477 142.436 49.89 149.44 49.89L149.456 49.8732Z" fill="#315D0D" stroke="#315D0D" stroke-width="0.3" stroke-linecap="round" stroke-linejoin="round"/>
<path d="M153.201 59.5266C153.201 59.5266 148.153 68.4439 136.886 63.6925C136.886 63.6925 140.112 53.0687 151.897 56.03C151.897 56.03 146.03 57.703 144.626 60.6141C144.626 60.6141 146.849 62.2537 153.184 59.5099L153.201 59.5266Z" fill="#315D0D" stroke="#315D0D" stroke-width="0.3" stroke-linecap="round" stroke-linejoin="round"/>
<path d="M110.442 54.4071C107.283 63.5754 104.942 74.0151 106.681 83.6016C103.154 87.6671 99.2423 91.4983 95.1636 94.995C94.0269 95.9821 92.9404 96.919 91.8873 97.9061C91.8873 97.9061 91.787 98.0065 91.8538 97.9395C92.1046 97.6551 92.255 97.3372 92.255 96.8521C92.255 96.5175 92.1213 96.2665 92.0712 96.1996C91.9374 95.9988 91.9374 96.049 91.9876 96.0825C93.3416 97.1867 95.431 98.1068 96.6179 99.5624C98.022 100.984 98.5235 103.879 96.8352 105.435C97.1862 105.033 96.9522 105.117 97.019 105.368C97.019 105.602 97.1193 105.92 97.2531 106.204C97.6877 107.476 99.5933 107.844 100.596 108.363L99.0918 110.069C98.2393 111.023 97.8716 111.441 97.5205 112.16C97.5707 112.294 98.373 112.662 98.6739 112.763C100.295 114.653 101.198 118.167 98.5068 119.722C98.6071 119.672 98.5736 119.689 98.5569 119.722C98.256 120.559 98.7575 121.847 99.493 122.416C100.162 123.018 101.098 123.169 102.084 123.319C110.191 125.344 119.168 124.875 127.191 122.349C142.386 117.949 167.025 114.218 161.275 138.46L157.765 137.892C157.932 135.064 157.948 132.22 157.263 129.895C154.204 118.97 131.905 126.482 124.015 128.171C116.292 129.66 108.469 129.443 100.864 127.268L101.248 127.352C99.7103 127.167 98.0721 126.532 96.8185 125.327C94.4114 123.219 93.7427 118.167 96.7014 116.644C96.668 116.795 96.7683 116.611 96.7014 116.243C96.6346 115.908 96.434 115.423 96.2668 115.172L96.9856 115.724C95.314 115.205 93.6257 113.231 94.3278 111.257C94.7624 109.801 95.6985 108.898 96.5343 107.944L97.2196 110.588C95.0967 109.718 93.843 107.894 93.5756 105.719C93.5087 104.699 93.6257 103.728 94.5117 102.858L94.3445 103.042C94.5618 102.306 93.492 101.57 92.8568 101.118C91.5028 100.181 89.8814 99.646 88.8116 98.1236C88.2934 97.4042 88.4438 95.8984 89.196 95.3296C89.2629 95.2459 89.43 95.1121 89.4969 95.0452C94.1439 90.7288 98.7408 86.4792 102.786 81.6107L102.285 83.3841C101.566 78.0471 102.151 72.8942 103.087 67.8751C104.073 62.8727 105.461 58.0209 107.383 53.2527L110.492 54.4741L110.442 54.4071Z" fill="#315D0D"/>
<path d="M113.3 80.724C118.599 81.159 130.668 81.159 135.482 75.0189C131.136 75.8889 121.491 77.6456 116.677 75.0189C115.707 79.4023 115.707 79.8373 113.3 80.724Z" fill="#315D0D"/>
<path d="M117.245 70.1003C119.168 67.9086 130.752 67.9086 136.535 68.3436C132.189 66.1519 122.059 67.0219 117.245 67.4736C116.276 69.2303 114.838 72.2919 117.245 70.1003Z" fill="#315D0D"/>
<path d="M170.87 71.8736C174.046 73.8646 176.52 76.6418 178.308 80.2054C180.097 83.7689 180.983 87.8177 180.983 92.4018C180.983 96.6346 180.097 100.549 178.325 104.13C176.553 107.727 174.062 110.571 170.886 112.712C167.71 114.837 164.083 115.908 160.021 115.908C155.959 115.908 152.399 114.82 149.206 112.662C146.013 110.504 143.522 107.626 141.734 104.013C139.945 100.399 139.059 96.5342 139.059 92.4018C139.059 87.8344 139.979 83.7689 141.834 80.1886C143.69 76.6083 146.214 73.8478 149.406 71.8569C152.599 69.8827 156.143 68.8789 160.038 68.8789C163.933 68.8789 167.71 69.8827 170.886 71.8736H170.87ZM153.385 72.8607C151.546 75.0022 150.175 77.8129 149.256 81.2928C148.337 84.7728 147.869 88.4702 147.869 92.4185C147.869 96.3669 148.337 100.064 149.256 103.527C150.175 106.991 151.546 109.801 153.385 111.943C155.224 114.084 157.43 115.172 160.021 115.172C162.612 115.172 164.835 114.068 166.707 111.876C168.58 109.668 170 106.79 170.953 103.226C171.906 99.6628 172.391 95.8984 172.391 91.9333C172.391 87.9683 171.923 84.388 170.987 80.9917C170.051 77.5954 168.663 74.8684 166.791 72.7771C164.935 70.6858 162.662 69.6485 160.004 69.6485C157.346 69.6485 155.207 70.7193 153.368 72.8775L153.385 72.8607Z" fill="#315D0D"/>
<path d="M299.264 90.2603L326.946 178.613C328.032 181.859 329.253 184.636 330.607 186.928C331.961 189.22 333.298 191.011 334.602 192.299C335.906 193.587 337.092 194.541 338.179 195.126C339.265 195.712 340.553 196.18 342.09 196.498H305.633C306.72 196.214 307.539 195.812 308.124 195.294C308.709 194.775 309.21 193.955 309.662 192.851C310.096 191.747 310.33 190.325 310.33 188.568C310.33 185.841 309.745 182.512 308.592 178.597L300.969 153.484H271.834L264.378 176.472C263.058 180.571 262.389 184.084 262.389 187.012C262.389 189.137 262.707 190.86 263.325 192.182C263.944 193.503 264.679 194.474 265.515 195.076C266.351 195.678 267.554 196.163 269.126 196.498H246.542C247.947 196.163 249.167 195.678 250.237 195.043C251.306 194.407 252.493 193.37 253.847 191.931C255.185 190.492 256.605 188.501 258.11 185.958C259.614 183.415 261.085 180.27 262.523 176.556L291.224 90.2603H299.264ZM272.352 151.795H300.451L287.246 107.158L272.352 151.795Z" fill="#315D0D"/>
<path d="M384.331 90.277C382.843 90.6618 381.657 91.147 380.754 91.766C379.851 92.3851 378.949 93.3387 378.013 94.6604C377.076 95.9821 376.324 97.7555 375.722 99.9974C375.121 102.239 374.82 104.966 374.82 108.162V178.613C374.82 181.859 375.121 184.62 375.722 186.895C376.324 189.17 377.076 190.944 378.013 192.232C378.932 193.537 379.851 194.49 380.754 195.093C381.657 195.712 382.843 196.18 384.331 196.515H348.409C349.896 196.18 351.083 195.712 352.019 195.093C352.939 194.474 353.858 193.52 354.744 192.232C355.647 190.944 356.399 189.17 357.034 186.928C357.653 184.686 357.97 181.943 357.97 178.697V108.179C357.97 105.016 357.653 102.34 357.034 100.114C356.416 97.8894 355.647 96.1327 354.744 94.811C353.841 93.4893 352.939 92.5189 352.019 91.8832C351.1 91.2474 349.896 90.712 348.409 90.2938H384.331V90.277Z" fill="#315D0D"/>
<path d="M185.128 167.739C185.128 167.739 196.311 186.527 218.159 174.916C218.159 174.916 210.52 152.38 187.418 160.176C187.418 160.176 199.17 162.97 202.329 169.144C202.329 169.144 198.1 172.958 185.112 167.722L185.128 167.739Z" fill="#315D0D"/>
<path d="M228.405 91.2307C252.343 97.1867 245.656 120.643 245.656 120.643C220.733 118.602 220.699 97.9061 220.699 97.789C226.216 106.606 235.409 107.108 235.409 107.108C236.145 100.131 228.405 91.2307 228.405 91.2307Z" fill="#315D0D"/>
<path d="M194.673 160.31L198.718 161.281L202.68 162.552L206.324 163.673L210.988 166.685L212.275 169.311L211.188 174.33L202.947 173.092L188.689 172.055C183.373 173.544 188.923 186.795 199.521 191.814C203.9 193.888 208.815 194.608 213.93 194.608C219.981 194.608 225.113 193.236 229.342 190.475C233.571 187.715 235.777 183.549 235.978 177.994V177.71C235.978 175.502 235.192 173.427 233.638 171.486C232.083 169.546 230.094 167.772 227.687 166.149C225.28 164.526 221.937 162.469 217.657 159.959C211.055 156.144 205.639 152.648 201.409 149.486C197.18 146.324 193.536 142.325 190.477 137.457C187.418 132.605 185.88 126.917 185.88 120.408V120.342C185.88 113.649 187.418 107.995 190.511 103.394C193.586 98.7928 197.582 95.3798 202.463 93.1379C207.344 90.8961 212.526 89.7751 218.025 89.7751C222.672 89.7751 227.018 90.5782 231.08 92.1843L233.872 94.4095L237.566 97.9898L241.528 101.537L242.648 106.271L239.689 111.709L226.985 110.236C220.215 108.429 221.937 96.9525 218.293 94.5098C216.738 93.4726 211.322 92.9874 208.614 94.6604C205.906 96.3335 203.716 98.2407 202.128 101.085C200.54 103.912 199.755 106.941 199.755 110.136V110.772C199.872 113.75 200.858 116.46 202.73 118.903C204.586 121.362 206.876 123.537 209.6 125.444C212.325 127.352 216.069 129.727 220.833 132.555C227.001 136.185 231.983 139.431 235.794 142.275C239.605 145.136 242.848 148.683 245.556 152.916C248.264 157.165 249.618 162.134 249.618 167.839C249.618 168.358 249.601 168.876 249.551 169.395C249.267 175.485 247.495 180.588 244.236 184.753C240.976 188.919 236.78 191.981 231.649 193.989C226.517 195.996 221.034 197 215.2 197C209.366 197 203.8 196.013 198.534 194.072C193.269 192.131 189.006 189.304 185.747 185.623C182.487 181.943 180.832 177.626 180.799 172.674C180.799 168.86 181.3 165.48 183.557 162.837C183.557 162.837 185.446 160.461 187.853 160.11L194.673 160.327V160.31Z" fill="#315D0D"/>
<path d="M223.658 94.3091C223.658 94.3091 239.154 102.641 242.38 116.627C242.38 116.627 243.232 100.315 223.658 94.3091Z" fill="#315D0D"/>
<path d="M189.04 165.982C189.04 165.982 202.212 159.808 214.448 173.544C214.448 173.544 201.276 163.907 189.04 165.982Z" fill="#315D0D"/>
<path d="M185.128 167.739C185.128 167.739 196.311 186.527 218.159 174.916C218.159 174.916 210.52 152.38 187.418 160.176C187.418 160.176 199.17 162.97 202.329 169.144C202.329 169.144 198.1 172.958 185.112 167.722L185.128 167.739Z" fill="#315D0D"/>
<path d="M228.405 91.2307C252.343 97.1867 245.656 120.643 245.656 120.643C220.733 118.602 220.699 97.9061 220.699 97.789C226.216 106.606 235.409 107.108 235.409 107.108C236.145 100.131 228.405 91.2307 228.405 91.2307Z" fill="#315D0D"/>
<path d="M194.673 160.31L198.718 161.281L202.68 162.552L206.324 163.673L210.988 166.685L212.275 169.311L211.188 174.33L202.947 173.092L188.689 172.055C183.373 173.544 188.923 186.795 199.521 191.814C203.9 193.888 208.815 194.608 213.93 194.608C219.981 194.608 225.113 193.236 229.342 190.475C233.571 187.715 235.777 183.549 235.978 177.994V177.71C235.978 175.502 235.192 173.427 233.638 171.486C232.083 169.546 230.094 167.772 227.687 166.149C225.28 164.526 221.937 162.469 217.657 159.959C211.055 156.144 205.639 152.648 201.409 149.486C197.18 146.324 193.536 142.325 190.477 137.457C187.418 132.605 185.88 126.917 185.88 120.408V120.342C185.88 113.649 187.418 107.995 190.511 103.394C193.586 98.7928 197.582 95.3798 202.463 93.1379C207.344 90.8961 212.526 89.7751 218.025 89.7751C222.672 89.7751 227.018 90.5782 231.08 92.1843L233.872 94.4095L237.566 97.9898L241.528 101.537L242.648 106.271L239.689 111.709L226.985 110.236C220.215 108.429 221.937 96.9525 218.293 94.5098C216.738 93.4726 211.322 92.9874 208.614 94.6604C205.906 96.3335 203.716 98.2407 202.128 101.085C200.54 103.912 199.755 106.941 199.755 110.136V110.772C199.872 113.75 200.858 116.46 202.73 118.903C204.586 121.362 206.876 123.537 209.6 125.444C212.325 127.352 216.069 129.727 220.833 132.555C227.001 136.185 231.983 139.431 235.794 142.275C239.605 145.136 242.848 148.683 245.556 152.916C248.264 157.165 249.618 162.134 249.618 167.839C249.618 168.358 249.601 168.876 249.551 169.395C249.267 175.485 247.495 180.588 244.236 184.753C240.976 188.919 236.78 191.981 231.649 193.989C226.517 195.996 221.034 197 215.2 197C209.366 197 203.8 196.013 198.534 194.072C193.269 192.131 189.006 189.304 185.747 185.623C182.487 181.943 180.832 177.626 180.799 172.674C180.799 168.86 181.3 165.48 183.557 162.837C183.557 162.837 185.446 160.461 187.853 160.11L194.673 160.327V160.31Z" fill="#315D0D"/>
<path d="M223.658 94.3091C223.658 94.3091 239.154 102.641 242.38 116.627C242.38 116.627 243.232 100.315 223.658 94.3091Z" fill="#FDF5F3"/>
<path d="M189.04 165.982C189.04 165.982 202.212 159.808 214.448 173.544C214.448 173.544 201.276 163.907 189.04 165.982Z" fill="#FDF5F3"/>
</svg>
