<svg width="385" height="197" viewBox="0 0 385 197" fill="none" xmlns="http://www.w3.org/2000/svg">
<mask id="path-1-inside-1_363_5867" fill="white">
<path d="M121.173 12.7485C113.233 9.46936 103.856 9.35225 96.4673 9.35225C84.2814 9.35225 73.5498 13.4679 64.2725 21.6993C54.9952 29.9306 47.8575 40.6715 42.8595 53.9052C37.8614 67.1389 35.3708 80.9917 35.3708 95.4802C35.3708 97.0361 35.4042 98.5418 35.4878 100.014C36.123 116.393 39.8506 130.396 46.6874 142.041C53.5242 153.685 62.1162 162.469 72.4633 168.425C82.7937 174.381 93.5587 177.342 104.708 177.342C112.882 177.342 120.572 175.702 127.759 172.423C134.947 169.144 141.667 164.56 146.732 158.135C151.797 151.711 156.143 146.14 157.948 136.921L161.626 136.637C159.352 149.737 157.447 153.769 145.963 167.939C138.708 176.907 130.033 183.867 120.087 188.401C110.141 192.935 99.5096 195.193 88.1929 195.193C73.483 195.193 59.3581 191.446 45.8015 183.934C32.2449 176.438 21.2124 165.396 12.7208 150.824C4.24583 136.252 0 118.919 0 98.8262C0 81.159 3.62734 64.897 10.9155 50.0739C18.1869 35.2508 28.5507 23.4894 41.9903 14.7729C55.4298 6.0731 70.9589 1.72321 88.5607 1.72321C101.616 1.72321 112.448 3.59701 121.056 7.34461C129.665 11.0922 135.967 15.8604 139.979 21.6323"/>
</mask>
<path d="M121.173 12.7485C113.233 9.46936 103.856 9.35225 96.4673 9.35225C84.2814 9.35225 73.5498 13.4679 64.2725 21.6993C54.9952 29.9306 47.8575 40.6715 42.8595 53.9052C37.8614 67.1389 35.3708 80.9917 35.3708 95.4802C35.3708 97.0361 35.4042 98.5418 35.4878 100.014C36.123 116.393 39.8506 130.396 46.6874 142.041C53.5242 153.685 62.1162 162.469 72.4633 168.425C82.7937 174.381 93.5587 177.342 104.708 177.342C112.882 177.342 120.572 175.702 127.759 172.423C134.947 169.144 141.667 164.56 146.732 158.135C151.797 151.711 156.143 146.14 157.948 136.921L161.626 136.637C159.352 149.737 157.447 153.769 145.963 167.939C138.708 176.907 130.033 183.867 120.087 188.401C110.141 192.935 99.5096 195.193 88.1929 195.193C73.483 195.193 59.3581 191.446 45.8015 183.934C32.2449 176.438 21.2124 165.396 12.7208 150.824C4.24583 136.252 0 118.919 0 98.8262C0 81.159 3.62734 64.897 10.9155 50.0739C18.1869 35.2508 28.5507 23.4894 41.9903 14.7729C55.4298 6.0731 70.9589 1.72321 88.5607 1.72321C101.616 1.72321 112.448 3.59701 121.056 7.34461C129.665 11.0922 135.967 15.8604 139.979 21.6323" fill="#FDF5F3"/>
<path d="M35.4878 100.014L36.487 99.9753L36.4867 99.9664L36.4862 99.9574L35.4878 100.014ZM72.4633 168.425L72.9628 167.558L72.9622 167.558L72.4633 168.425ZM157.948 136.921L157.871 135.924L157.113 135.983L156.967 136.729L157.948 136.921ZM161.626 136.637L162.611 136.808L162.831 135.541L161.549 135.64L161.626 136.637ZM145.963 167.939L145.186 167.31L145.186 167.31L145.963 167.939ZM45.8015 183.934L46.2862 183.059L46.2853 183.058L45.8015 183.934ZM12.7208 150.824L11.8563 151.327L11.8568 151.328L12.7208 150.824ZM10.9155 50.0739L11.8129 50.5152L11.8133 50.5144L10.9155 50.0739ZM41.9903 14.7729L41.4469 13.9334L41.4461 13.9339L41.9903 14.7729ZM121.173 12.7485L121.555 11.8242C113.405 8.45818 103.831 8.35225 96.4673 8.35225V9.35225V10.3523C103.881 10.3523 113.062 10.4805 120.792 13.6728L121.173 12.7485ZM96.4673 9.35225V8.35225C84.0321 8.35225 73.0655 12.5607 63.6088 20.9512L64.2725 21.6993L64.9362 22.4473C74.0341 14.3751 84.5308 10.3523 96.4673 10.3523V9.35225ZM64.2725 21.6993L63.6088 20.9512C54.194 29.3046 46.9711 40.1883 41.924 53.5519L42.8595 53.9052L43.795 54.2585C48.744 41.1547 55.7964 30.5566 64.9362 22.4473L64.2725 21.6993ZM42.8595 53.9052L41.924 53.5519C36.8821 66.9016 34.3708 80.8743 34.3708 95.4802H35.3708H36.3708C36.3708 81.1091 38.8407 67.3763 43.795 54.2585L42.8595 53.9052ZM35.3708 95.4802H34.3708C34.3708 97.0501 34.4045 98.5753 34.4894 100.071L35.4878 100.014L36.4862 99.9574C36.4039 98.5083 36.3708 97.0221 36.3708 95.4802H35.3708ZM35.4878 100.014L34.4885 100.053C35.1288 116.561 38.8886 130.733 45.8251 142.547L46.6874 142.041L47.5498 141.534C40.8127 130.06 37.1172 116.225 36.487 99.9753L35.4878 100.014ZM46.6874 142.041L45.8251 142.547C52.7384 154.322 61.4486 163.238 71.9644 169.291L72.4633 168.425L72.9622 167.558C62.7837 161.699 54.3101 153.048 47.5498 141.534L46.6874 142.041ZM72.4633 168.425L71.9638 169.291C82.4365 175.329 93.3726 178.342 104.708 178.342V177.342V176.342C93.7449 176.342 83.151 173.432 72.9628 167.558L72.4633 168.425ZM104.708 177.342V178.342C113.02 178.342 120.852 176.674 128.174 173.333L127.759 172.423L127.344 171.513C120.292 174.731 112.744 176.342 104.708 176.342V177.342ZM127.759 172.423L128.174 173.333C135.464 170.007 142.328 165.336 147.517 158.754L146.732 158.135L145.947 157.516C141.006 163.783 134.43 168.281 127.344 171.513L127.759 172.423ZM146.732 158.135L147.517 158.754C152.583 152.329 157.074 146.591 158.93 137.113L157.948 136.921L156.967 136.729C155.212 145.688 151.011 151.093 145.947 157.516L146.732 158.135ZM157.948 136.921L158.025 137.918L161.703 137.634L161.626 136.637L161.549 135.64L157.871 135.924L157.948 136.921ZM161.626 136.637L160.64 136.466C159.508 142.991 158.483 147.158 156.353 151.441C154.211 155.749 150.929 160.223 145.186 167.31L145.963 167.939L146.74 168.569C152.481 161.485 155.893 156.858 158.144 152.332C160.406 147.782 161.47 143.383 162.611 136.808L161.626 136.637ZM145.963 167.939L145.186 167.31C138.018 176.17 129.463 183.027 119.672 187.491L120.087 188.401L120.502 189.31C130.603 184.706 139.399 177.644 146.74 168.568L145.963 167.939ZM120.087 188.401L119.672 187.491C109.861 191.963 99.3722 194.193 88.1929 194.193V195.193V196.193C99.647 196.193 110.42 193.906 120.502 189.31L120.087 188.401ZM88.1929 195.193V194.193C73.6614 194.193 59.7024 190.493 46.2862 183.059L45.8015 183.934L45.3168 184.808C59.0137 192.398 73.3045 196.193 88.1929 196.193V195.193ZM45.8015 183.934L46.2853 183.058C32.9006 175.658 21.9939 164.751 13.5848 150.321L12.7208 150.824L11.8568 151.328C20.431 166.041 31.5892 177.219 45.3176 184.809L45.8015 183.934ZM12.7208 150.824L13.5852 150.321C5.21459 135.929 1 118.776 1 98.8262H0H-1C-1 119.062 3.27708 136.575 11.8563 151.327L12.7208 150.824ZM0 98.8262H1C1 81.3002 4.59723 65.1908 11.8129 50.5152L10.9155 50.0739L10.0181 49.6327C2.65745 64.6033 -1 81.0177 -1 98.8262H0ZM10.9155 50.0739L11.8133 50.5144C19.0073 35.8489 29.251 24.2271 42.5344 15.6119L41.9903 14.7729L41.4461 13.9339C27.8504 22.7517 17.3664 34.6528 10.0177 49.6335L10.9155 50.0739ZM41.9903 14.7729L42.5337 15.6124C55.7953 7.02772 71.1317 2.72321 88.5607 2.72321V1.72321V0.723206C70.7861 0.723206 55.0643 5.11848 41.4469 13.9334L41.9903 14.7729ZM88.5607 1.72321V2.72321C101.529 2.72321 112.213 4.58568 120.657 8.26149L121.056 7.34461L121.455 6.42772C112.682 2.60833 101.703 0.723206 88.5607 0.723206V1.72321ZM121.056 7.34461L120.657 8.26149C129.15 11.9588 135.281 16.6257 139.158 22.2031L139.979 21.6323L140.8 21.0616C136.653 15.095 130.18 10.2257 121.455 6.42772L121.056 7.34461Z" fill="#FDF5F3" mask="url(#path-1-inside-1_363_5867)"/>
<mask id="path-3-inside-2_363_5867" fill="white">
<path d="M139.979 173.544C135.967 179.316 129.665 184.084 121.056 187.832C112.448 191.579 101.616 193.453 88.5607 193.453C70.9422 193.453 55.4298 189.103 41.9736 180.387C28.534 171.67 18.1702 159.909 10.8987 145.086C3.62734 130.263 0 114.017 0 96.3334C0 76.257 4.24583 58.9243 12.7375 44.3522C21.2292 29.78 32.2616 18.7547 45.8182 11.2428C59.3748 3.7476 73.5164 0 88.2096 0C99.5263 0 110.158 2.2586 120.104 6.79253C130.049 11.3265 138.524 18.1524 145.512 27.2872C152.516 36.422 157.146 47.5477 159.436 60.6476L156.494 60.7814C154.689 51.563 151.245 43.7332 146.18 37.3087C141.115 30.8842 134.981 26.0324 127.776 22.77C120.588 19.4909 112.899 17.8513 104.725 17.8513C93.5587 17.8513 82.8104 20.8293 72.48 26.7686C62.1329 32.7079 53.5576 41.508 46.7041 53.1524C39.8674 64.7967 36.123 78.8 35.5045 95.179C35.4209 96.6513 35.3875 98.157 35.3875 99.713C35.3875 114.201 37.8782 128.054 42.8762 141.288C47.8743 154.522 54.9952 165.246 64.2892 173.494C73.5665 181.725 84.2981 185.841 96.484 185.841C103.872 185.841 113.25 185.724 121.19 182.445"/>
</mask>
<path d="M139.979 173.544C135.967 179.316 129.665 184.084 121.056 187.832C112.448 191.579 101.616 193.453 88.5607 193.453C70.9422 193.453 55.4298 189.103 41.9736 180.387C28.534 171.67 18.1702 159.909 10.8987 145.086C3.62734 130.263 0 114.017 0 96.3334C0 76.257 4.24583 58.9243 12.7375 44.3522C21.2292 29.78 32.2616 18.7547 45.8182 11.2428C59.3748 3.7476 73.5164 0 88.2096 0C99.5263 0 110.158 2.2586 120.104 6.79253C130.049 11.3265 138.524 18.1524 145.512 27.2872C152.516 36.422 157.146 47.5477 159.436 60.6476L156.494 60.7814C154.689 51.563 151.245 43.7332 146.18 37.3087C141.115 30.8842 134.981 26.0324 127.776 22.77C120.588 19.4909 112.899 17.8513 104.725 17.8513C93.5587 17.8513 82.8104 20.8293 72.48 26.7686C62.1329 32.7079 53.5576 41.508 46.7041 53.1524C39.8674 64.7967 36.123 78.8 35.5045 95.179C35.4209 96.6513 35.3875 98.157 35.3875 99.713C35.3875 114.201 37.8782 128.054 42.8762 141.288C47.8743 154.522 54.9952 165.246 64.2892 173.494C73.5665 181.725 84.2981 185.841 96.484 185.841C103.872 185.841 113.25 185.724 121.19 182.445" fill="#FDF5F3"/>
<path d="M41.9736 180.387L41.4294 181.226L41.4299 181.226L41.9736 180.387ZM45.8182 11.2428L45.3343 10.3677L45.3335 10.3681L45.8182 11.2428ZM145.512 27.2872L144.717 27.8948L144.718 27.8957L145.512 27.2872ZM159.436 60.6476L159.481 61.6465L160.617 61.5949L160.421 60.4754L159.436 60.6476ZM156.494 60.7814L155.513 60.9736L155.678 61.8196L156.539 61.7804L156.494 60.7814ZM127.776 22.77L127.361 23.6798L127.364 23.681L127.776 22.77ZM72.48 26.7686L72.9778 27.6359L72.9784 27.6355L72.48 26.7686ZM46.7041 53.1524L45.8423 52.6451L45.8418 52.646L46.7041 53.1524ZM35.5045 95.179L36.5029 95.2357L36.5034 95.2262L36.5038 95.2168L35.5045 95.179ZM64.2892 173.494L63.6255 174.242L63.6256 174.242L64.2892 173.494ZM139.979 173.544L139.158 172.973C135.281 178.551 129.15 183.218 120.657 186.915L121.056 187.832L121.455 188.749C130.18 184.951 136.653 180.081 140.8 174.115L139.979 173.544ZM121.056 187.832L120.657 186.915C112.213 190.591 101.529 192.453 88.5607 192.453V193.453V194.453C101.703 194.453 112.682 192.568 121.455 188.749L121.056 187.832ZM88.5607 193.453V192.453C71.1152 192.453 55.7957 188.149 42.5172 179.547L41.9736 180.387L41.4299 181.226C55.064 190.058 70.7691 194.453 88.5607 194.453V193.453ZM41.9736 180.387L42.5177 179.548C29.2343 170.933 18.9906 159.311 11.7965 144.645L10.8987 145.086L10.001 145.526C17.3497 160.507 27.8337 172.408 41.4294 181.226L41.9736 180.387ZM10.8987 145.086L11.7965 144.645C4.59721 129.969 1 113.876 1 96.3334H0H-1C-1 114.159 2.65748 130.556 10.001 145.526L10.8987 145.086ZM0 96.3334H1C1 76.4 5.21455 59.2481 13.6015 44.8557L12.7375 44.3522L11.8735 43.8487C3.27711 58.6005 -1 76.114 -1 96.3334H0ZM12.7375 44.3522L13.6015 44.8557C22.0103 30.4257 32.917 19.5349 46.3029 12.1175L45.8182 11.2428L45.3335 10.3681C31.6063 17.9746 20.448 29.1344 11.8735 43.8487L12.7375 44.3522ZM45.8182 11.2428L46.3021 12.118C59.7186 4.70014 73.6947 1 88.2096 1V0V-1C73.3381 -1 59.0309 2.79506 45.3343 10.3677L45.8182 11.2428ZM88.2096 0V1C99.3889 1 109.878 3.2302 119.689 7.70244L120.104 6.79253L120.518 5.88261C110.437 1.287 99.6637 -1 88.2096 -1V0ZM120.104 6.79253L119.689 7.70244C129.478 12.165 137.825 18.884 144.717 27.8948L145.512 27.2872L146.306 26.6797C139.224 17.4209 130.621 10.4879 120.518 5.88261L120.104 6.79253ZM145.512 27.2872L144.718 27.8957C151.609 36.8833 156.184 47.8527 158.451 60.8198L159.436 60.6476L160.421 60.4754C158.108 47.2426 153.422 35.9607 146.305 26.6788L145.512 27.2872ZM159.436 60.6476L159.391 59.6486L156.449 59.7824L156.494 60.7814L156.539 61.7804L159.481 61.6465L159.436 60.6476ZM156.494 60.7814L157.475 60.5892C155.644 51.2378 152.142 43.2559 146.966 36.6896L146.18 37.3087L145.395 37.9278C150.348 44.2105 153.733 51.8882 155.513 60.9736L156.494 60.7814ZM146.18 37.3087L146.966 36.6896C141.805 30.1444 135.545 25.1901 128.189 21.8591L127.776 22.77L127.364 23.681C134.417 26.8748 140.425 31.6241 145.395 37.9278L146.18 37.3087ZM127.776 22.77L128.191 21.8602C120.868 18.5195 113.037 16.8513 104.725 16.8513V17.8513V18.8513C112.761 18.8513 120.308 20.4622 127.361 23.6798L127.776 22.77ZM104.725 17.8513V16.8513C93.3715 16.8513 82.4526 19.8815 71.9816 25.9016L72.48 26.7686L72.9784 27.6355C83.1682 21.7771 93.7459 18.8513 104.725 18.8513V17.8513ZM72.48 26.7686L71.9822 25.9013C61.4644 31.9385 52.7713 40.8726 45.8423 52.6451L46.7041 53.1524L47.5659 53.6596C54.344 42.1434 62.8014 33.4772 72.9778 27.6359L72.48 26.7686ZM46.7041 53.1524L45.8418 52.646C38.9056 64.4596 35.1287 78.6312 34.5052 95.1413L35.5045 95.179L36.5038 95.2168C37.1173 78.9688 40.8291 65.1338 47.5665 53.6587L46.7041 53.1524ZM35.5045 95.179L34.5061 95.1224C34.4212 96.6178 34.3875 98.143 34.3875 99.713H35.3875H36.3875C36.3875 98.1711 36.4206 96.6848 36.5029 95.2357L35.5045 95.179ZM35.3875 99.713H34.3875C34.3875 114.319 36.8989 128.292 41.9407 141.641L42.8762 141.288L43.8117 140.935C38.8575 127.817 36.3875 114.084 36.3875 99.713H35.3875ZM42.8762 141.288L41.9407 141.641C46.9878 155.005 54.1939 165.872 63.6255 174.242L64.2892 173.494L64.953 172.746C55.7965 164.62 48.7607 154.038 43.8117 140.935L42.8762 141.288ZM64.2892 173.494L63.6256 174.242C73.0822 182.632 84.0488 186.841 96.484 186.841V185.841V184.841C84.5475 184.841 74.0508 180.818 64.9529 172.746L64.2892 173.494ZM96.484 185.841V186.841C103.847 186.841 113.421 186.735 121.572 183.369L121.19 182.445L120.808 181.52C113.079 184.713 103.898 184.841 96.484 184.841V185.841Z" fill="#FDF5F3" mask="url(#path-3-inside-2_363_5867)"/>
<path d="M160.857 57.4855C160.857 57.4855 173.528 77.0098 198.267 64.9472C198.267 64.9472 189.441 41.3574 163.297 49.4549C163.297 49.4549 176.77 52.5333 180.348 58.9578C180.348 58.9578 175.55 62.9229 160.857 57.4855Z" fill="#FDF5F3" stroke="#FDF5F3" stroke-width="0.3" stroke-linecap="round" stroke-linejoin="round"/>
<path d="M161.124 44.3689C161.124 44.3689 179.98 45.3727 182.119 26.0826C182.119 26.0826 162.077 21.1472 156.611 39.5673C156.611 39.5673 164.434 33.1428 170.401 33.8121C170.401 33.8121 171.103 38.2456 161.124 44.3689Z" fill="#FDF5F3" stroke="#FDF5F3" stroke-width="0.3" stroke-linecap="round" stroke-linejoin="round"/>
<path d="M149.456 49.8732C149.456 49.8732 140.714 55.9631 132.757 47.2967C132.757 47.2967 140.664 38.9483 149.908 46.226C149.908 46.226 143.823 45.4564 141.182 47.5477C141.182 47.5477 142.436 49.89 149.44 49.89L149.456 49.8732Z" fill="#FDF5F3" stroke="#FDF5F3" stroke-width="0.3" stroke-linecap="round" stroke-linejoin="round"/>
<path d="M153.201 59.5266C153.201 59.5266 148.153 68.4439 136.886 63.6925C136.886 63.6925 140.112 53.0687 151.897 56.03C151.897 56.03 146.03 57.703 144.626 60.6141C144.626 60.6141 146.849 62.2537 153.184 59.5099L153.201 59.5266Z" fill="#FDF5F3" stroke="#FDF5F3" stroke-width="0.3" stroke-linecap="round" stroke-linejoin="round"/>
<path d="M98.139 119.449C98.1297 119.466 98.1089 119.506 98.0941 119.559C98.0832 119.599 98.021 119.843 98.222 120.045C98.3046 120.127 98.3961 120.164 98.4711 120.18C98.4774 120.048 98.498 119.921 98.5326 119.803L98.2562 119.29C99.4017 118.628 99.79 117.565 99.7084 116.403C99.6279 115.257 99.0836 114.05 98.3695 113.18C98.1964 113.112 97.9755 113.018 97.7806 112.922C97.6515 112.858 97.52 112.787 97.4125 112.72C97.3596 112.686 97.3015 112.646 97.2494 112.602C97.218 112.576 97.1077 112.484 97.0521 112.336L96.9769 112.135L97.0707 111.941C97.1983 111.68 97.3303 111.454 97.4789 111.234L97.0297 111.051C96.4233 110.802 95.8836 110.48 95.4105 110.099C95.1621 110.485 94.9542 110.907 94.807 111.4L94.8031 111.412L94.7992 111.425C94.5142 112.226 94.7028 113.048 95.181 113.757C95.5033 114.234 95.9454 114.635 96.4174 114.918L96.5717 114.775L97.2904 115.327L97.0756 115.739C97.0902 115.782 97.1067 115.824 97.1195 115.866L97.4203 115.712L97.2191 116.62C97.2159 116.657 97.2117 116.692 97.2064 116.722C97.2008 116.755 97.1932 116.792 97.182 116.828C97.1768 116.845 97.167 116.874 97.1517 116.906C97.1444 116.922 97.13 116.949 97.1078 116.981C97.0953 116.999 97.0359 117.085 96.9203 117.143C96.8771 117.165 96.8183 117.185 96.7484 117.192C95.6429 117.868 95.1591 119.208 95.2465 120.737C95.3327 122.245 95.9749 123.794 96.9486 124.764L97.1478 124.951L97.1566 124.959L97.1644 124.967C98.2341 125.994 99.6176 126.582 100.963 126.805L100.97 126.779L101.354 126.863L101.35 126.884C108.763 128.943 116.383 129.132 123.913 127.681C127.793 126.85 135.425 124.532 142.399 123.805C145.894 123.441 149.293 123.466 152.033 124.301C154.794 125.142 156.919 126.822 157.743 129.753L157.868 130.212C158.418 132.403 158.419 134.96 158.286 137.47L160.892 137.891C162.184 132.139 161.687 128.113 160.079 125.348C158.436 122.521 155.57 120.909 151.984 120.153C144.78 118.634 134.934 120.627 127.34 122.825L127.341 122.826C119.243 125.376 110.179 125.852 101.979 123.808C101.034 123.664 99.9498 123.5 99.1586 122.788V122.787C98.7138 122.431 98.3662 121.893 98.1664 121.34C97.9642 120.78 97.8824 120.121 98.0863 119.554L98.0961 119.525L98.1097 119.499L98.139 119.449ZM98.139 119.449C98.1524 119.428 98.1621 119.413 98.1635 119.411C98.1713 119.4 98.1562 119.42 98.1429 119.442C98.1422 119.444 98.1408 119.446 98.139 119.449ZM109.802 54.7401C106.746 63.7381 104.498 73.9759 106.148 83.45C102.899 87.1769 99.3265 90.7071 95.598 93.9588L94.8383 94.6151L94.8353 94.617C94.2149 95.1558 93.607 95.6833 93.0092 96.2127C92.7652 96.0461 92.5335 95.8813 92.3207 95.7088C92.3059 95.6939 92.2907 95.6772 92.2728 95.6629C92.2698 95.6605 92.2065 95.6059 92.1107 95.575C92.0812 95.5655 91.8839 95.5013 91.683 95.6326C91.4452 95.7883 91.4528 96.0389 91.4584 96.0984C91.4656 96.1759 91.4901 96.2325 91.4984 96.2518C91.5098 96.278 91.5212 96.2989 91.5287 96.3113C91.5438 96.3366 91.5589 96.3565 91.5687 96.369C91.5812 96.3847 91.596 96.3989 91.6107 96.4139L91.6547 96.4764L91.6625 96.4881L91.6713 96.4998C91.6595 96.4841 91.6837 96.5158 91.7103 96.5916C91.7347 96.6611 91.7552 96.7513 91.7552 96.8524C91.7552 97.202 91.6568 97.403 91.4847 97.6004C91.4798 97.6054 91.4769 97.6092 91.4769 97.6092C91.4772 98.1391 91.8746 98.2713 92.0736 98.3045L92.184 98.3162H92.1849V98.3152C92.1837 98.3165 92.1855 98.3157 92.1859 98.3152V98.3143H92.1869V98.3133L92.1898 98.3104C92.1916 98.3086 92.1899 98.3112 92.1937 98.3074C92.1946 98.3066 92.1937 98.3064 92.1947 98.3055H92.1957V98.3045L92.2289 98.2713C92.5162 98.002 92.806 97.7356 93.099 97.4715C93.4328 97.686 93.7694 97.8985 94.0912 98.1092C94.9262 98.656 95.6886 99.2149 96.2299 99.8787L96.2455 99.8963L96.2621 99.9139C96.8738 100.534 97.3068 101.499 97.3881 102.489C97.455 103.306 97.2788 104.094 96.8168 104.709C96.7623 104.735 96.7246 104.762 96.7084 104.776C96.6813 104.799 96.6621 104.821 96.6508 104.835C96.6282 104.861 96.6124 104.885 96.6039 104.899C96.5901 104.922 96.58 104.944 96.5717 104.962L96.4584 105.105L96.514 105.16C96.503 105.238 96.5032 105.328 96.5209 105.426C96.5345 105.748 96.6586 106.108 96.7914 106.395C97.0851 107.215 97.8241 107.694 98.4945 108.016C98.8428 108.184 99.2069 108.325 99.5297 108.451C99.612 108.483 99.6911 108.516 99.767 108.546L98.7162 109.738C98.3318 110.168 98.0375 110.5 97.7933 110.807L97.7035 110.462L97.0179 107.819L96.7806 106.904L96.1586 107.615C95.8872 107.925 95.5905 108.244 95.2972 108.592C94.6274 107.784 94.2127 106.783 94.0736 105.674C94.0175 104.796 94.1121 104.053 94.7094 103.376L94.7142 103.379L94.8812 103.194L94.8324 103.146C94.9991 102.511 94.6092 101.969 94.2806 101.627C94.1012 101.44 93.8941 101.265 93.6937 101.11L93.1469 100.711L92.8715 100.527C92.5995 100.352 92.3229 100.19 92.0521 100.035C91.6862 99.8253 91.3354 99.63 90.9916 99.4158C90.3957 99.0446 89.8543 98.6368 89.4066 98.0828L89.2201 97.8358L89.2172 97.8309L89.1605 97.7391C89.0365 97.5044 88.9735 97.1368 89.0238 96.7322C89.0813 96.27 89.2686 95.9014 89.4974 95.7283L89.5472 95.6902L89.5863 95.6414C89.5836 95.6449 89.5891 95.6381 89.6097 95.618C89.6285 95.5998 89.6516 95.5781 89.6791 95.5535C89.7126 95.5235 89.728 95.5105 89.7631 95.4793C89.785 95.4598 89.8115 95.4349 89.8363 95.4109L89.8373 95.4119C93.9906 91.5541 98.125 87.7264 101.865 83.4559L102.766 83.5203L103.267 81.7469L102.575 81.3817C102.218 76.8063 102.761 72.3527 103.578 67.9715C104.527 63.1578 105.849 58.4882 107.663 53.9002L109.802 54.7401ZM96.4525 109.621C96.298 109.52 96.1514 109.411 96.0111 109.297C96.1006 109.19 96.1922 109.084 96.2855 108.977L96.4525 109.621ZM97.0209 105.653C96.9313 105.651 96.8269 105.629 96.7279 105.553C96.6932 105.526 96.665 105.497 96.642 105.468L96.7904 105.429L97.0209 105.653ZM96.7279 105.368H96.5814C96.5555 105.312 96.5454 105.264 96.5414 105.24C96.5379 105.219 96.5364 105.199 96.5355 105.18L96.7279 105.368Z" fill="#FDF5F3" stroke="#FDF5F3"/>
<path d="M117.028 75.7484C119.538 76.8716 122.987 77.0331 126.286 76.8295C129.143 76.653 131.959 76.1964 134.086 75.7982C131.718 78.0139 128.174 79.2306 124.491 79.8441C121.15 80.4006 117.765 80.4463 115.196 80.3363C115.502 80.0961 115.754 79.8066 115.965 79.4232C116.207 78.9832 116.386 78.441 116.563 77.7601C116.705 77.2131 116.851 76.5505 117.028 75.7484Z" fill="#FDF5F3" stroke="#FDF5F3"/>
<path d="M127.066 67.4173C128.632 67.4173 130.179 67.478 131.601 67.6312C129.591 67.5982 127.437 67.6225 125.414 67.7376C123.473 67.848 121.636 68.0423 120.155 68.3509C119.415 68.5051 118.75 68.6901 118.2 68.9144C117.677 69.1279 117.217 69.3934 116.903 69.7347C116.785 69.8414 116.679 69.9323 116.585 70.0101C116.799 69.4223 117.19 68.6302 117.559 67.9466C119.968 67.7224 123.546 67.4173 127.066 67.4173Z" fill="#FDF5F3" stroke="#FDF5F3"/>
<path d="M162.793 69.5537C165.45 69.8942 167.983 70.7336 170.224 72.0586L170.604 72.2969C173.697 74.2357 176.111 76.942 177.861 80.4297C179.61 83.9136 180.483 87.8834 180.483 92.4014C180.483 96.3019 179.718 99.9195 178.192 103.246L177.877 103.908V103.909C176.143 107.429 173.71 110.205 170.608 112.297C168.259 113.868 165.655 114.847 162.797 115.227C164.24 114.743 165.547 113.87 166.717 112.616L167.088 112.201L167.089 112.199C169.019 109.922 170.469 106.973 171.436 103.355C172.401 99.7475 172.89 95.9397 172.89 91.9336C172.89 87.9279 172.418 84.3019 171.469 80.8584C170.517 77.4073 169.099 74.6054 167.164 72.4434H167.163C165.896 71.0162 164.433 70.0536 162.793 69.5537ZM157.279 69.5576C155.661 70.0728 154.248 71.0729 152.987 72.5527L152.989 72.5547C151.097 74.765 149.703 77.6428 148.772 81.165C147.841 84.6896 147.369 88.4306 147.369 92.4189C147.369 96.407 147.842 100.148 148.773 103.656C149.706 107.172 151.106 110.056 153.006 112.269C154.233 113.698 155.631 114.687 157.197 115.217C154.382 114.826 151.833 113.834 149.486 112.248C146.368 110.14 143.934 107.33 142.182 103.791C140.429 100.248 139.559 96.4594 139.559 92.4014C139.559 87.903 140.464 83.9186 142.278 80.4189C144.094 76.9144 146.557 74.222 149.669 72.2812L149.67 72.2822C152.012 70.8341 154.547 69.9206 157.279 69.5576Z" fill="#FDF5F3" stroke="#FDF5F3"/>
<path d="M298.897 90.7603L326.468 178.763L326.471 178.772C327.566 182.042 328.8 184.853 330.176 187.182C331.544 189.497 332.906 191.327 334.25 192.655C335.57 193.958 336.796 194.948 337.942 195.566C338.224 195.718 338.518 195.862 338.825 195.998H308.03C308.18 195.893 308.324 195.784 308.456 195.668C309.04 195.149 309.524 194.394 309.947 193.454L310.125 193.04L310.126 193.034C310.591 191.853 310.831 190.365 310.831 188.568C310.831 185.95 310.305 182.815 309.283 179.187L309.072 178.456L309.07 178.452L301.448 153.339L301.34 152.984H271.47L271.358 153.33L263.903 176.318V176.319C262.573 180.445 261.889 184.014 261.889 187.012C261.889 189.181 262.213 190.983 262.873 192.393C263.513 193.762 264.296 194.814 265.223 195.482C265.479 195.667 265.765 195.837 266.079 195.998H249.502C249.845 195.835 250.174 195.661 250.492 195.472C251.479 194.885 252.54 193.988 253.706 192.8L254.211 192.273L254.213 192.271C255.584 190.796 257.026 188.773 258.541 186.212C260.063 183.639 261.545 180.467 262.989 176.736L262.994 176.725L262.998 176.713L291.585 90.7603H298.897ZM286.771 107L271.877 151.636L271.658 152.294H301.121L300.93 151.653L287.725 107.016L287.274 105.493L286.771 107Z" fill="#FDF5F3" stroke="#FDF5F3"/>
<path d="M381.433 90.7936C381.087 90.9673 380.766 91.1514 380.471 91.3532C379.502 92.0177 378.559 93.023 377.604 94.3718C376.622 95.7591 375.85 97.5942 375.24 99.8679C374.623 102.165 374.32 104.938 374.32 108.162V178.613C374.32 181.887 374.623 184.694 375.239 187.023C375.811 189.185 376.526 190.936 377.425 192.265L377.608 192.526C378.545 193.856 379.504 194.858 380.471 195.505V195.506C380.739 195.689 381.029 195.857 381.339 196.014H351.414C351.584 195.929 351.749 195.842 351.908 195.75L352.295 195.509L352.298 195.508C353.283 194.844 354.243 193.84 355.153 192.518L355.154 192.519C355.983 191.336 356.677 189.784 357.268 187.895L357.515 187.065L357.516 187.061C358.15 184.764 358.47 181.972 358.47 178.697V108.178C358.47 104.985 358.15 102.261 357.516 99.9802C356.888 97.7209 356.099 95.9094 355.157 94.529C354.233 93.1769 353.29 92.1546 352.303 91.4724C351.953 91.2303 351.567 91.0045 351.145 90.7936H381.433Z" fill="#FDF5F3" stroke="#FDF5F3"/>
<path d="M189.182 160.15C194.164 158.729 198.351 158.779 201.843 159.674C205.706 160.665 208.753 162.699 211.103 164.981C213.455 167.265 215.103 169.794 216.164 171.754C216.694 172.734 217.076 173.569 217.324 174.158C217.411 174.362 217.479 174.537 217.533 174.677C206.965 180.15 199.023 178.374 193.704 175.251C190.999 173.662 188.957 171.714 187.592 170.163C187.138 169.646 186.76 169.173 186.457 168.774C192.167 170.879 196.086 171.179 198.647 170.893C200.039 170.738 201.025 170.411 201.674 170.113C201.998 169.964 202.237 169.822 202.4 169.713C202.481 169.659 202.543 169.614 202.586 169.58C202.608 169.563 202.625 169.548 202.638 169.538C202.644 169.532 202.65 169.528 202.655 169.524C202.656 169.522 202.658 169.52 202.659 169.519C202.66 169.518 202.662 169.518 202.662 169.517L202.663 169.516C202.664 169.516 202.657 169.508 202.329 169.144L202.663 169.515L202.948 169.258L202.774 168.917C201.109 165.663 197.233 163.362 193.891 161.887C192.203 161.143 190.616 160.594 189.452 160.232C189.36 160.203 189.269 160.177 189.182 160.15Z" fill="#FDF5F3" stroke="#FDF5F3"/>
<path d="M229.761 92.1174C234.858 93.6229 238.393 95.9742 240.828 98.6741C243.494 101.63 244.87 105.031 245.517 108.268C246.164 111.507 246.079 114.571 245.83 116.829C245.706 117.957 245.541 118.881 245.407 119.521C245.359 119.755 245.311 119.95 245.275 120.104C233.26 119.004 227.272 113.485 224.265 108.245C222.325 104.864 221.613 101.576 221.352 99.6165C224.013 103.137 227.246 105.113 229.933 106.217C231.463 106.845 232.817 107.192 233.791 107.382C234.278 107.477 234.671 107.533 234.945 107.566C235.081 107.582 235.189 107.592 235.263 107.598C235.299 107.601 235.328 107.603 235.348 107.605C235.358 107.605 235.367 107.606 235.372 107.607H235.382L235.857 107.633L235.906 107.16C236.293 103.499 234.463 99.4064 232.613 96.2971C231.679 94.7289 230.724 93.3828 230.002 92.429C229.919 92.3195 229.837 92.2164 229.761 92.1174Z" fill="#FDF5F3" stroke="#FDF5F3"/>
<path d="M218.025 90.2751C222.588 90.2752 226.849 91.0589 230.829 92.6228L233.538 94.783L237.218 98.3484L237.225 98.3552L237.232 98.3621L241.076 101.803L242.116 106.199L239.411 111.173L227.083 109.744C224.03 108.911 222.826 105.901 221.951 102.487C221.527 100.83 221.174 99.0551 220.713 97.5935C220.282 96.2266 219.713 94.9744 218.766 94.2351L218.571 94.0945L218.57 94.0935L218.384 93.9802C217.926 93.7232 217.301 93.5204 216.61 93.3718C215.808 93.1993 214.868 93.0906 213.896 93.0691C211.974 93.0265 209.828 93.3233 208.352 94.2351C205.598 95.9361 203.335 97.8985 201.692 100.84C200.062 103.742 199.255 106.855 199.255 110.136V110.792C199.369 113.683 200.276 116.332 201.981 118.73L202.333 119.207C204.222 121.71 206.551 123.92 209.313 125.854C211.71 127.532 214.886 129.566 218.837 131.944L220.578 132.985H220.58C226.354 136.384 231.078 139.44 234.771 142.14L235.495 142.676C239.255 145.498 242.457 149 245.135 153.185V153.184C247.785 157.343 249.118 162.216 249.118 167.839C249.118 168.347 249.102 168.849 249.054 169.346L249.052 169.372C248.772 175.374 247.028 180.373 243.842 184.445C240.641 188.536 236.52 191.546 231.467 193.523C226.396 195.507 220.975 196.5 215.2 196.5C209.424 196.5 203.916 195.523 198.707 193.603C193.509 191.687 189.319 188.903 186.121 185.292C182.943 181.703 181.332 177.504 181.299 172.675C181.299 168.888 181.802 165.663 183.938 163.161L183.943 163.155L183.948 163.148L183.951 163.144C183.954 163.141 183.959 163.135 183.965 163.128C183.977 163.113 183.997 163.089 184.022 163.059C184.074 162.999 184.152 162.91 184.254 162.802C184.458 162.586 184.753 162.294 185.12 161.991C185.855 161.385 186.83 160.775 187.888 160.61L194.657 160.827H194.687L198.591 161.764L202.527 163.028L202.533 163.03L206.109 164.131L210.6 167.028L211.749 169.374L210.798 173.765L203.021 172.597L203.003 172.595L202.983 172.594L188.725 171.556L188.638 171.55L188.554 171.574C187.777 171.792 187.179 172.233 186.774 172.852C186.375 173.463 186.182 174.218 186.148 175.045C186.082 176.691 186.646 178.73 187.689 180.833C189.715 184.915 193.638 189.412 198.803 192.019L199.307 192.265C203.776 194.383 208.771 195.107 213.93 195.107C220.058 195.107 225.29 193.718 229.615 190.894C233.996 188.035 236.272 183.709 236.478 178.012V177.71C236.477 175.372 235.644 173.19 234.028 171.174C232.437 169.187 230.407 167.381 227.967 165.735C225.849 164.307 223.016 162.549 219.473 160.449L217.91 159.528L217.907 159.526L216.686 158.816C210.645 155.284 205.654 152.036 201.709 149.086C197.794 146.158 194.382 142.502 191.476 138.085L190.9 137.19L190.623 136.741C187.805 132.078 186.381 126.633 186.381 120.408V120.342C186.381 113.934 187.806 108.523 190.646 104.097L190.926 103.673L190.927 103.672C193.952 99.1463 197.876 95.7951 202.671 93.5925C207.485 91.3814 212.596 90.2751 218.025 90.2751Z" fill="#FDF5F3" stroke="#FDF5F3"/>
<path d="M227.918 96.4614C234.611 99.5512 238.091 104.008 239.905 107.93C240.547 109.317 240.979 110.642 241.273 111.819C239.046 106.863 235.46 102.823 232.143 99.8511C230.635 98.5009 229.177 97.3672 227.918 96.4614Z" fill="#FDF5F3" stroke="#FDF5F3"/>
<path d="M194.064 165.233C194.989 165.128 196.021 165.072 197.137 165.112C200.981 165.251 205.848 166.507 210.793 170.67C209.585 169.993 208.145 169.246 206.536 168.528C202.998 166.951 198.608 165.497 194.064 165.233Z" fill="#FDF5F3" stroke="#FDF5F3"/>
<path d="M189.182 160.15C194.164 158.729 198.351 158.779 201.843 159.674C205.706 160.665 208.753 162.699 211.103 164.981C213.455 167.265 215.103 169.794 216.164 171.754C216.694 172.734 217.076 173.569 217.324 174.158C217.411 174.362 217.479 174.537 217.533 174.677C206.965 180.15 199.023 178.374 193.704 175.251C190.999 173.662 188.957 171.714 187.592 170.163C187.138 169.646 186.76 169.173 186.457 168.774C192.167 170.879 196.086 171.179 198.647 170.893C200.039 170.738 201.025 170.411 201.674 170.113C201.998 169.964 202.237 169.822 202.4 169.713C202.481 169.659 202.543 169.614 202.586 169.58C202.608 169.563 202.625 169.548 202.638 169.538C202.644 169.532 202.65 169.528 202.655 169.524C202.656 169.522 202.658 169.52 202.659 169.519C202.66 169.518 202.662 169.518 202.662 169.517L202.663 169.516C202.664 169.516 202.657 169.508 202.329 169.144L202.663 169.515L202.948 169.258L202.774 168.917C201.109 165.663 197.233 163.362 193.891 161.887C192.203 161.143 190.616 160.594 189.452 160.232C189.36 160.203 189.269 160.177 189.182 160.15Z" fill="#FDF5F3" stroke="#FDF5F3"/>
<path d="M229.761 92.1174C234.858 93.6229 238.393 95.9742 240.828 98.6741C243.494 101.63 244.87 105.031 245.517 108.268C246.164 111.507 246.079 114.571 245.83 116.829C245.706 117.957 245.541 118.881 245.407 119.521C245.359 119.755 245.311 119.95 245.275 120.104C233.26 119.004 227.272 113.485 224.265 108.245C222.325 104.864 221.613 101.576 221.352 99.6165C224.013 103.137 227.246 105.113 229.933 106.217C231.463 106.845 232.817 107.192 233.791 107.382C234.278 107.477 234.671 107.533 234.945 107.566C235.081 107.582 235.189 107.592 235.263 107.598C235.299 107.601 235.328 107.603 235.348 107.605C235.358 107.605 235.367 107.606 235.372 107.607H235.382L235.857 107.633L235.906 107.16C236.293 103.499 234.463 99.4064 232.613 96.2971C231.679 94.7289 230.724 93.3828 230.002 92.429C229.919 92.3195 229.837 92.2164 229.761 92.1174Z" fill="#FDF5F3" stroke="#FDF5F3"/>
<path d="M218.025 90.2751C222.588 90.2752 226.849 91.0589 230.829 92.6228L233.538 94.783L237.218 98.3484L237.225 98.3552L237.232 98.3621L241.076 101.803L242.116 106.199L239.411 111.173L227.083 109.744C224.03 108.911 222.826 105.901 221.951 102.487C221.527 100.83 221.174 99.0551 220.713 97.5935C220.282 96.2266 219.713 94.9744 218.766 94.2351L218.571 94.0945L218.57 94.0935L218.384 93.9802C217.926 93.7232 217.301 93.5204 216.61 93.3718C215.808 93.1993 214.868 93.0906 213.896 93.0691C211.974 93.0265 209.828 93.3233 208.352 94.2351C205.598 95.9361 203.335 97.8985 201.692 100.84C200.062 103.742 199.255 106.855 199.255 110.136V110.792C199.369 113.683 200.276 116.332 201.981 118.73L202.333 119.207C204.222 121.71 206.551 123.92 209.313 125.854C211.71 127.532 214.886 129.566 218.837 131.944L220.578 132.985H220.58C226.354 136.384 231.078 139.44 234.771 142.14L235.495 142.676C239.255 145.498 242.457 149 245.135 153.185V153.184C247.785 157.343 249.118 162.216 249.118 167.839C249.118 168.347 249.102 168.849 249.054 169.346L249.052 169.372C248.772 175.374 247.028 180.373 243.842 184.445C240.641 188.536 236.52 191.546 231.467 193.523C226.396 195.507 220.975 196.5 215.2 196.5C209.424 196.5 203.916 195.523 198.707 193.603C193.509 191.687 189.319 188.903 186.121 185.292C182.943 181.703 181.332 177.504 181.299 172.675C181.299 168.888 181.802 165.663 183.938 163.161L183.943 163.155L183.948 163.148L183.951 163.144C183.954 163.141 183.959 163.135 183.965 163.128C183.977 163.113 183.997 163.089 184.022 163.059C184.074 162.999 184.152 162.91 184.254 162.802C184.458 162.586 184.753 162.294 185.12 161.991C185.855 161.385 186.83 160.775 187.888 160.61L194.657 160.827H194.687L198.591 161.764L202.527 163.028L202.533 163.03L206.109 164.131L210.6 167.028L211.749 169.374L210.798 173.765L203.021 172.597L203.003 172.595L202.983 172.594L188.725 171.556L188.638 171.55L188.554 171.574C187.777 171.792 187.179 172.233 186.774 172.852C186.375 173.463 186.182 174.218 186.148 175.045C186.082 176.691 186.646 178.73 187.689 180.833C189.715 184.915 193.638 189.412 198.803 192.019L199.307 192.265C203.776 194.383 208.771 195.107 213.93 195.107C220.058 195.107 225.29 193.718 229.615 190.894C233.996 188.035 236.272 183.709 236.478 178.012V177.71C236.477 175.372 235.644 173.19 234.028 171.174C232.437 169.187 230.407 167.381 227.967 165.735C225.849 164.307 223.016 162.549 219.473 160.449L217.91 159.528L217.907 159.526L216.686 158.816C210.645 155.284 205.654 152.036 201.709 149.086C197.794 146.158 194.382 142.502 191.476 138.085L190.9 137.19L190.623 136.741C187.805 132.078 186.381 126.633 186.381 120.408V120.342C186.381 113.934 187.806 108.523 190.646 104.097L190.926 103.673L190.927 103.672C193.952 99.1463 197.876 95.7951 202.671 93.5925C207.485 91.3814 212.596 90.2751 218.025 90.2751Z" fill="#FDF5F3" stroke="#FDF5F3"/>
<path d="M227.918 96.4614C234.611 99.5512 238.091 104.008 239.905 107.93C240.547 109.317 240.979 110.642 241.273 111.819C239.046 106.863 235.46 102.823 232.143 99.8511C230.635 98.5009 229.177 97.3672 227.918 96.4614Z" fill="#FDF5F3" stroke="#FDF5F3"/>
<path d="M194.064 165.233C194.989 165.128 196.021 165.072 197.137 165.112C200.981 165.251 205.848 166.507 210.793 170.67C209.585 169.993 208.145 169.246 206.536 168.528C202.998 166.951 198.608 165.497 194.064 165.233Z" fill="#FDF5F3" stroke="#FDF5F3"/>
</svg>
